<?xml version="1.0" standalone="no"?><!DOCTYPE svg PUBLIC "-//W3C//DTD SVG 1.1//EN"
        "http://www.w3.org/Graphics/SVG/1.1/DTD/svg11.dtd">
<svg class="icon" viewBox="0 0 1024 1024" version="1.1" xmlns="http://www.w3.org/2000/svg"
     width="22" height="22">
    <path d="M118.336 837.717333C92.928 868.693333 42.666667 850.730667 42.666667 810.666667c0-181.44 73.450667-311.424 201.173333-393.386667 79.573333-51.072 172.501333-79.381333 268.16-91.242667V149.333333c0-37.418667 44.757333-56.725333 71.957333-31.018666l384 362.666666a42.666667 42.666667 0 0 1 0 62.037334l-384 362.666666C556.757333 931.392 512 912.085333 512 874.666667v-191.061334c-166.613333 9.92-313.728 56.554667-393.664 154.112z m435.413333-241.194666a42.666667 42.666667 0 0 1 43.584 42.666666v136.490667L876.522667 512 597.333333 248.32v116.288a42.666667 42.666667 0 0 1-39.36 42.538667c-96.533333 7.509333-191.36 32.725333-268.053333 81.941333-77.568 49.770667-129.706667 120.064-151.04 215.957333 108.330667-73.770667 255.530667-105.045333 414.869333-108.522666z"
          fill="#2a2a2a"></path>
</svg>